<?xml version="1.0" encoding="UTF-8"?>
<!DOCTYPE svg PUBLIC "-//W3C//DTD SVG 1.1//EN" "http://www.w3.org/Graphics/SVG/1.1/DTD/svg11.dtd">
<!-- Creator: CorelDRAW -->
<svg xmlns="http://www.w3.org/2000/svg" xml:space="preserve" width="297mm" height="210mm" version="1.1" style="shape-rendering:geometricPrecision; text-rendering:geometricPrecision; image-rendering:optimizeQuality; fill-rule:evenodd; clip-rule:evenodd"
viewBox="0 0 29700 21000"
 xmlns:xlink="http://www.w3.org/1999/xlink"
 xmlns:xodm="http://www.corel.com/coreldraw/odm/2003">
 <defs>
  <style type="text/css">
   <![CDATA[
    .fil0 {fill:#66FFCC}
   ]]>
  </style>
 </defs>
 <g id="Capa_x0020_1">
  <metadata id="CorelCorpID_0Corel-Layer"/>
  <g id="_1936034495184">
   <path class="fil0" d="M13257.67 19004.66zm308.86 -4797.94l-308.86 4797.94zm308.86 -4797.94zm-308.86 4797.94l308.86 -4797.94zm-308.86 4797.94c91.87,-138.93 3182.01,-3233.61 3468.13,-3526.87l592.09 -573.55c286.73,-290.49 2481.51,-2576.45 2619.83,-2607.74 71.62,-16.2 336.13,86.27 439.42,121.13l3561.91 1111.13 -9325.83 4789.23c-233.29,118.2 -435.93,220.82 -669.16,338.99 -125,63.29 -218.51,110.23 -343.51,173.52 -119.47,60.49 -214.35,143.83 -342.88,174.16zm10526.95 -5814.86zm-4607.13 -443.31l4607.13 443.31zm-4607.13 -443.31l-2953.46 3005.22c-499.62,506.16 -980.36,993.2 -1479.97,1499.34 -225.81,228.77 -510.99,556.89 -754.85,747.62 -126.43,98.93 -261.47,255.97 -377.63,373.65 -106.33,107.7 -268.3,296.06 -379.65,371.57l818.02 -2900.1c30.39,-110.65 54.74,-177.92 82.92,-281.03 123.09,-450.36 27.82,-327.14 548.99,-591.14l4495.63 -2225.13zm0 0zm-7721.5 -3389.85l7721.5 3389.85zm-7721.5 -3389.85c120.04,-28.34 1190.47,-590.86 1398.56,-695.27 557.49,-279.64 4019.02,-2106.77 4186.64,-2120.94 24.96,108.5 2141.07,4286.11 2445.16,4902.22 66.33,134.47 323.96,600.72 334.57,730.17l-3466.39 1729.4c-647.84,328.37 -1512.92,709.86 -2118.81,1034.63 -34.63,-150.63 -260.44,-546.57 -342.82,-695.7 -124.97,-226.18 -227.54,-460 -343.51,-695.02l-2047.59 -4079.45c-34.84,-61.26 -23.9,-60.3 -45.81,-110.04zm746.43 -625.82zm1364.11 5475.9l-1364.11 -5475.9zm1364.11 5475.9l-727.09 -723.6c-119.72,-121.28 -250.89,-239.58 -360.15,-365.27l-2509.69 -2568.25c-123.36,-125.01 -243.59,-236.53 -360.66,-364.74 -484.17,-530.34 -923.38,-962.22 -1428.13,-1473.6 -105.67,-107.02 -278.8,-257.96 -353.94,-371.57 184.03,43.42 370.87,104.06 556.85,165.94 185.23,61.68 369.96,123.19 549.93,173.05 179.96,49.86 364.7,111.34 549.9,172.99 194.74,64.8 363,107.49 553.78,169.05 360.36,116.3 727.49,222.3 1100.95,344.88 140.33,46.11 137.16,35.48 198.69,163.79l2006.49 4173.2c76.64,155.28 184.01,334.19 223.07,504.13zm-6125.71 -5997.4c213.16,144.59 617.78,622.12 829.76,854.31 511.65,560.37 1489.63,1508.52 2085.13,2111.79l2496.59 2555.41c71.16,72.1 140.72,134.06 205.71,208.81 45.08,51.86 45.42,65.11 90.47,116.94l527.43 534.75c112.33,113.8 317.55,346.66 431.13,423.75l-1145.73 4002.24c-37.97,124.7 24.23,52.23 -63.96,117.71 -37.36,-162.43 -557.74,-1129.98 -669.22,-1355.89l-2393.65 -4771.91c-115.12,-233.3 -224.53,-454.58 -343.18,-695.33 -116.01,-235.51 -224.84,-429.54 -343.18,-669.3 -118.77,-240.66 -228.03,-462.04 -343.15,-695.3 -113.66,-230.31 -225.23,-430.31 -343.18,-669.31 -134.21,-271.94 -993.4,-1948.84 -1020.97,-2068.67zm0 0zm10218.09 -1016.96l-10218.09 1016.96zm10218.09 -1016.96c142.24,96.5 540.08,560.16 727.13,749.66l2226.33 2255.59c252.29,255.59 467.97,500.13 720.72,756.16 193.76,196.33 2142.98,2145.73 2219.89,2262.08l-833.62 -250.63c-801.21,-270.13 -1735.05,-539.8 -2555.26,-801.09 -197.68,-62.98 -168.04,-105.85 -326,-425.91 -693.14,-1404.48 -1369.86,-2883.31 -2058.75,-4276.74 -45.9,-92.83 -97.3,-168.5 -120.44,-269.12zm0 0zm6125.71 5997.44l-6125.71 -5997.44zm6125.71 5997.44l-2297.14 -2340.32c-245.47,-248.69 -1356.88,-1343.35 -1559.76,-1601.04l-1876.26 -1906.15c-199.36,-201.94 -379.81,-384.76 -579.14,-586.73 -367.44,-372.23 -385.65,-206.87 -60.8,-1195.86 49,-149.16 91.93,-289.63 133.58,-438.32 92.9,-331.6 793.27,-2512.63 808.74,-2700.9l51.5 0c31.68,137.7 241.65,515.71 317.43,669.3l1698.39 3364.11c243.2,440.2 421.98,919.78 675.84,1349.2 215.96,365.39 447.94,966.48 665.17,1333.93 131.24,222.02 225.23,437.27 340.9,671.61l1184 2346.75c103.03,210.54 469.37,911.81 497.55,1034.42zm-11582.2 -4458.98c110.19,-166.74 4083.13,-4123.58 4369.07,-4413.3l1093.87 -1108.24c106.3,-107.7 268.3,-296.06 379.63,-371.58 -11.1,135.2 -121.85,420.15 -163.71,564.28l-515.42 1694.27c-125.88,380.38 -214.59,734.84 -339.53,1116.24 -58.67,179 -136.98,170.19 -414.13,310.57l-3423.17 1721.03c-161.12,81.61 -879.85,461.57 -986.61,486.73zm5842.57 -5893.12zm0 -286.85l0 286.85zm0 -286.85c-74.85,113.27 -977.23,1003.06 -1151.78,1179.96l-5224.85 5267.31c-322.6,328.98 -370.54,228.18 -801.06,94.46l-1773.78 -549.81c-129.56,-36.25 -286.82,-85.53 -433.59,-134.37 -154.67,-51.5 -307.85,-97.97 -450,-143.83l-897.79 -263.88c33.35,-29.35 8.48,-12.13 60.25,-43.24 32.04,-19.25 51.23,-27.01 85.3,-43.98 66.79,-33.23 105.67,-53.06 171.88,-86.57l1012.34 -512.85c456.35,-231.17 882.1,-446.82 1338.42,-677.99 909.44,-460.68 1783.33,-916.37 2685.37,-1373.32 892.26,-451.96 1784.52,-903.95 2676.74,-1355.91 192.13,-97.33 2566.57,-1323.86 2702.55,-1355.98zm0 0zm-10964.49 5345.56l10964.49 -5345.56zm-10964.49 5345.56c19.97,86.85 40.22,109.21 82.01,177.64 36.79,60.18 56.43,102.1 89.59,169.98 64.75,132.31 115.03,233.11 180.15,365.11l3603.34 7170.81c125.25,253.74 235.14,476.41 360.36,730.13l1089.58 2155.59c119.1,241.52 236.08,492.24 360.32,730.13 120.78,-10.2 2660.66,-1334.73 2839.8,-1425.49l6374.53 -3268.17c245.72,-124.46 460.77,-246.42 712.11,-373.74 479.79,-243.05 958.65,-471.88 1424.15,-721.41 -38.33,-166.68 -3003.31,-5981.11 -3586.19,-7162.19l-1081.01 -2138.15c-138.93,-281.53 -1044.16,-2050.08 -1072.43,-2173.02 -123.49,29.16 -843.1,414.63 -1055.47,521.35l-4624.1 2355.71c-331.84,168.07 -2590.43,1289.61 -2844.78,1446.52 -212.89,131.33 -466.42,243.86 -698.55,361.39l-1424.16 721.41c-162.58,82.36 -585.89,322.55 -729.25,356.4z"/>
  </g>
 </g>
</svg>
