<?xml version="1.0" encoding="UTF-8"?>
<!DOCTYPE svg PUBLIC "-//W3C//DTD SVG 1.1//EN" "http://www.w3.org/Graphics/SVG/1.1/DTD/svg11.dtd">
<!-- Creator: CorelDRAW -->
<svg xmlns="http://www.w3.org/2000/svg" xml:space="preserve" width="297mm" height="210mm" version="1.1" style="shape-rendering:geometricPrecision; text-rendering:geometricPrecision; image-rendering:optimizeQuality; fill-rule:evenodd; clip-rule:evenodd"
viewBox="0 0 29700 21000"
 xmlns:xlink="http://www.w3.org/1999/xlink"
 xmlns:xodm="http://www.corel.com/coreldraw/odm/2003">
 <defs>
  <style type="text/css">
   <![CDATA[
    .fil0 {fill:#66FFCC}
   ]]>
  </style>
 </defs>
 <g id="Capa_x0020_1">
  <metadata id="CorelCorpID_0Corel-Layer"/>
  <g id="_1936029198528">
   <path class="fil0" d="M10908.38 11525.99l3.97 -15.57 -3.97 15.57zm6662.97 -601.12l-3.98 15.57 3.98 -15.57zm-13550.47 -282.45zm9654.08 782.18l-9654.08 -782.18zm9654.08 782.18c22.73,-97.58 83.31,-206.78 130.45,-296.85 16.79,-32.07 30.55,-62.21 48.09,-96.76 73.99,-145.78 242.55,-404.64 335.59,-526.25 20.58,-26.9 42.07,-53.41 64.23,-80.61l100.46 -116.8c67.49,-70.13 217.03,-200.83 306.14,-200.83l36.21 0c144.39,0 257.38,325.29 150.11,591.9 -78.95,196.22 -223.96,311.21 -382.89,428.24 -166.31,122.49 -464.54,245.67 -669.4,279.35 -25.12,4.13 -106.06,12.4 -118.99,18.61zm-10211.74 -267.97c0,104.11 102.43,138.12 216.6,93.47 29.91,-11.7 161.18,-141.54 201.31,-175.27 12.49,-10.5 17.48,-17.99 29.38,-28.58 335.55,-298.41 786.2,-549.47 1246.99,-614.28 29.34,-4.14 64.37,-6.17 97.62,-11.03 79.71,-11.66 232.66,-4.14 315.91,-3.31 99.08,0.98 279.47,36.61 377.01,57.54 38.06,8.16 145.67,31.01 165.89,58.62 -6.41,24.02 -117.62,158.99 -135.53,183.13l-515.21 621.85c-13.17,16.51 -25.02,24.75 -39.04,40.62l-75.78 83.55c-15.82,18.93 -17.94,24.84 -36.43,43.24 -15,14.94 -25.45,24.37 -40.08,39.58 -18.11,18.81 -21.44,28.56 -39.54,47.37 -107.46,111.64 -216.3,215.97 -326.05,325.76 -14.63,14.62 -24.81,26.1 -39.74,39.92 -311.89,288.49 -701.5,613.85 -1074.89,793.65 -289.33,139.33 -645.02,183.22 -941.64,24.08 -103.58,-55.56 -207.54,-160.69 -274.53,-254.16 -150.76,-210.3 -256.55,-515.2 -256.55,-793.6 0,-319.25 15.69,-434.02 120.32,-734.29 29.15,-83.62 67.35,-169.75 104.2,-243.43 84.85,-169.64 211.46,-393.01 342.12,-534.21 193.48,-209.13 481.41,-460.66 774.68,-263.93 101.01,67.77 194.87,182.67 208.73,312.73 26.83,251.77 -117.09,556.53 -284.5,744.27 -18.82,21.12 -121.25,130.28 -121.25,146.71zm5938.74 -1166.01c-117.05,-9.75 -123.12,-105.12 -123.12,-181.07 0,-169.16 245.55,-589 391.09,-601.11 0,176.03 -44.5,261.82 -102.47,418.97 -34.46,93.39 -161.71,346.94 -165.5,363.21zm-2122.01 630.08c-105.61,-24.61 -259.55,-80.54 -368.44,-116.8l-355.8 -129.45 571.82 -883.9 362.12 -615.6c30.5,-52.83 57.04,-105.85 87.57,-158.67l395.11 -763.65c10.37,-22.4 7.97,-26.95 31.86,-33.34 11.78,24.55 -1.17,46.57 -8.75,78.15l-150.57 602.65c-98.59,398 -258.3,958.65 -371.9,1351.79 -18.79,65.02 -172.29,625.61 -193.02,668.82zm-3259.07 21.72c7.19,-30.86 18.29,-55.15 27.96,-80.68 177.11,-468.05 -44.6,-946.22 -543.47,-1069.54 -250.01,-61.81 -552.79,-23.01 -787.18,72.04 -168.58,68.36 -317.92,176.42 -451.71,294.25 -154.48,136.05 -273.75,308.31 -377.94,483.92 -30.36,51.17 -51.88,98.81 -78.99,152.75 -25.82,51.34 -45.66,101.56 -66.96,157.56 -127.14,334.3 -164.24,630.27 -140.41,996.14 8.56,131.52 50.78,272.33 85.69,377.82 63.1,190.69 166.49,364.39 291.69,519.47 19.62,24.31 35.49,38.27 53.86,62.01l80.97 85.6c14.49,12.77 18.06,12.67 32.46,25.48 127.12,112.95 268.41,201.09 425.36,269.9 373.06,163.59 769.38,172.57 1158.14,42.43 211.91,-70.96 425.44,-189.34 606.15,-320.89 155.75,-113.38 307.19,-225.93 454.31,-349.58 22.61,-19 42.03,-36.9 62.95,-52.93 143.13,-109.67 506.53,-473.78 613.84,-595.64l246.3 -267.91c14.45,-14.44 13.9,-15.23 26.49,-31.44 74.73,-96.2 206.3,-240.3 291.6,-345.74 58.32,-72.07 338.07,-416.87 349.9,-461.23 62.59,14.58 138.78,45.08 201.87,66.09 93.25,31.09 550.51,185.43 638.25,187.39 -7.41,89.08 -48.53,226.09 -64.24,319.61 -19.23,114.57 -35.29,220.82 -52.05,339.04 -65.55,462.36 -83.1,1013.48 -23.5,1465.55 61.81,468.7 177.17,925.27 467.97,1284.68l68.41 76.43c406.85,443.14 1054.29,499.95 1668.39,303.35 120.95,-38.73 176.43,-33.55 231,-160.28 25.47,-59.17 2.8,-91.85 -45.68,-121 -91.56,-55.07 -102.88,-6.32 -289.05,39.96 -199.3,49.52 -473.09,69.47 -667.37,-17.8 -67.23,-30.21 -128.39,-59.33 -180.38,-109.31 -20.87,-20.06 -36.1,-27.14 -54.53,-46.86 -133.17,-142.45 -220.96,-308.59 -290.27,-491.92 -37.13,-98.25 -59.88,-202.46 -80.08,-303.77l-37.47 -252.21c-2.51,-25.91 -4.53,-61.52 -8.61,-92.8 -5.78,-44.34 -12.85,-131.79 -12.55,-182.98 0.42,-73.29 -7.54,-121.5 -7.19,-188.35 0.45,-88.14 -1.37,-304.3 9.26,-381.92 16.22,-118.3 15.57,-240.27 28.14,-362.95 31.88,-311.23 79.32,-621.68 148.07,-923.8 6.99,-30.68 16.65,-52.3 17.36,-84.03l134.6 -10.24c46.75,-6.76 96.24,-10.04 135.54,-16.55 309.39,-51.26 587.73,-176.06 825.73,-369.27 81.53,-66.17 158.29,-134.31 231.44,-210.34 66.19,-68.81 23.78,-70.12 226.7,-42.31 50.02,6.85 87.07,11.38 140.7,11.38 -2.29,27.62 -11.82,38.22 -21.78,57.88 -28.03,55.32 -49.75,124.1 -72.37,181.12 -93.4,235.44 -179.22,526.35 -239.01,767.67 -61.08,246.6 -128.56,621.88 -63.82,896.72 21.49,91.23 49.25,174.49 98.88,241.51 50.05,67.61 102.4,111.74 201.76,131.39 179.99,35.6 375.04,-50.53 507.11,-149.08 128.94,-96.21 229.82,-219.19 332.99,-340.55 91.25,-107.33 406.23,-579.93 422.27,-591.67 -0.79,35.39 -14.55,77.74 -21.14,109.24l-41.91 233.28c-46.08,350.9 -8.34,725.6 346.46,851.51 129.5,45.95 326.89,68.63 475.68,28.58 190.75,-51.35 353.95,-195.57 488.4,-329.99l192.74 -220.09 231.3 -319.1c46.67,-70 105.18,-179.77 150.85,-240.25 13.01,-17.24 0.46,-0.89 9.94,-11.78 0,258.21 -34.88,271.38 8.44,578.18 44.69,316.58 207.75,616.8 519.24,711.96 368.88,112.68 769.81,-16.24 1063.66,-234.75l163.11 -141.06c15.23,-15.33 26.27,-24.71 40.92,-38.74 171.63,-164.3 306.83,-364.26 438.18,-561.27 22.54,-33.81 107.16,-169.1 127.46,-183.96 -84.31,361.86 -221.97,1102.47 290.97,1229.93 126.58,31.43 236.21,37.25 200.08,-113.18 -90.91,-378.51 88.35,-857.56 217.58,-1204.8l838.14 -1160.73c13.82,-17.69 14.4,-19.43 30.21,-34.98l119.54 -126.7c78.75,-78.74 162.94,-173.21 268.97,-216.24 217.74,-88.41 102.21,161.82 63.41,258.93 -183.62,459.42 -422.44,898.33 -579.59,1368.61 -20.47,61.26 -39.29,118.02 -59.7,179.3 -20.34,61 -37.66,125.76 -56.24,190 -17.25,59.65 -30.82,130.28 -41.18,197.82 -16.12,105.07 -20.01,234.26 -5.33,332.37 6.21,41.5 9.05,66.17 19.69,103.42 18.92,66.29 43.43,118.29 78.65,167.59 64.55,90.34 174.95,159.65 303.09,182.16 287.02,50.38 201.33,-62.48 165.58,-201.8 -80.61,-314.16 72.85,-695.69 187.42,-986.18 15.8,-40.05 18.11,-48.43 43.47,-79.64 125.58,-154.63 247.91,-328.93 358.76,-495.85l149.3 -212.82c16.81,-23.84 33.58,-48.37 50.66,-72.45 113.74,-160.28 388.55,-527.11 552.53,-664.19 67.75,-56.64 133.4,-120.32 220.28,-149.08 53.47,-17.72 54.47,-9.24 103.49,-5.16 31.74,136.22 -116.46,392.21 -172.81,529.71l-160.46 360.98c-87.44,194.69 -174.15,385.02 -246.96,585.92 -76.25,210.41 -148.26,408.56 -198.9,633.96 -46.51,207.06 -52.21,502.98 96.55,672.31 71.48,81.36 178.25,117.05 287.22,132.83 239.94,34.73 382.12,-75.47 546.44,-208.07 14.12,-11.4 17.25,-11.84 31.94,-26 106.01,-102.05 205.36,-210.53 295.06,-327.79 120.53,-157.54 240.99,-318.57 344.5,-488.37 26.56,-43.57 49.43,-89 82.72,-127.31 -6.05,72.71 -36.36,205.07 -47.64,285.52 -32.63,232.65 -38.68,522.06 66.84,730.94 21.35,42.28 41.98,65.43 67.61,98.97 108.31,141.73 334.36,174.12 493.6,116.8 145.63,-52.43 278.32,-183.76 384.67,-288.87 103.54,-102.35 218.62,-250.09 303.38,-362.92 167.75,-223.31 325.16,-463.1 469.31,-703.95l129.71 -203.43c46.46,-62.23 102.82,-123.93 177.75,-155.4 24.51,-10.3 36.93,-15.62 65.22,-21.69 27.59,-5.9 49.25,-7.7 69.5,-17.41 -0.89,-39.69 -66.08,-148.49 -86.81,-188.4 -13.71,-26.39 -28.49,-68.45 -61.79,-75.65 -74.78,-16.17 -194.14,139.59 -231.18,188.44 -75.48,99.51 -256.67,399.47 -327.66,519.7 -103.17,174.74 -224.48,340.07 -339.79,507.57l-89.9 120.13c-82.23,107.46 -391.54,515 -499.51,304.13 -144.68,-282.58 237.01,-1402.96 306.78,-1612.18 54.13,-162.35 190.41,-488.94 206.33,-641.04 20.06,-191.52 -85.93,-262.02 -220.49,-342.47 -63.12,-37.75 -245.23,-124.66 -286.82,8.99 -29.45,94.65 10.77,88 -87.71,339.57 -80.88,206.64 -160.23,406.33 -232.43,614.94 -14.69,42.46 -19.7,61.4 -42.03,95.58 -20.28,31.04 -35.83,57.53 -55.22,89.63 -159.66,264.49 -325.32,516.47 -495.29,772.13 -20.12,30.26 -36.68,57.19 -58.52,86.31 -102.97,137.28 -404.89,569.31 -548.79,581.86 -159.22,13.88 -95.92,-331.7 -74.87,-423.33 75.72,-329.48 250.12,-716.82 386.51,-1025.77 143.63,-325.36 425.74,-1007.89 275.5,-1332.51 -28.17,-60.87 -78.43,-111.85 -139.91,-142.53 -61.59,-30.74 -161.64,-53.62 -233.6,-42.8 -47.44,7.14 -81.81,7.8 -120.7,17.23 -38.8,9.44 -74.75,23.5 -106.93,37.93 -152.28,68.29 -286.26,182.02 -403.86,298.64 -27.76,27.54 -41.72,49.57 -68.73,76.13 -133.97,131.68 -260.42,322.41 -373.8,473.54 -22.77,30.37 -102.25,143.62 -124.17,158.29l144 -406.41c42.36,-144.24 74,-302.32 43.48,-476.32 -25.58,-145.85 -121.08,-255.74 -259.66,-290.78 -279.89,-70.76 -501.36,83.69 -686.52,248.23l-204.55 208.27c-19.41,25.2 -41,48.74 -62.93,74.67 -105.37,124.68 -198.88,260.09 -297.11,390.93 -41.14,54.78 -76.53,103.54 -116.81,158.38 -41.16,56.03 -79.84,107.11 -124.25,158.22 4.7,-56.46 39.82,-137.61 57.02,-189.23 21.94,-65.85 41.14,-122.17 61.43,-192.05 252.22,-868.64 -401.74,-894.35 -522,-833.41 -99.58,50.46 -15.52,192.62 -53.65,417.1 -33.17,195.28 -155.53,582.92 -220.85,778.59 -26.95,80.73 -35.49,101.44 -79.27,174.22 -109.62,182.29 -213.02,368.92 -330.47,545.85 -18.05,27.18 -32.98,45.75 -50.78,72.33 -121.13,180.97 -195.58,271.89 -320.2,433.01l-121.86 131.62c-119.86,120.95 -294.07,257.32 -465.73,287.47 -79.01,13.88 -146.01,12.96 -212.43,-11.3 -57.02,-20.83 -111.58,-60.49 -144.39,-109.08 -35.06,-51.9 -56.5,-101.06 -69.71,-176.52 -10.33,-59.01 -18.23,-172.12 -8.19,-239.2 5.58,-37.24 6.29,-78.57 10.97,-112.15 5.53,-39.68 11.46,-70.06 19.13,-111.23 7.1,-38.17 12.25,-64.64 20.58,-102.54 7.59,-34.62 23.49,-74.98 25.93,-104.43 82.55,0 280.79,-55.94 348.61,-78.69 259.79,-87.15 572.93,-223.63 768.42,-419.33 34.19,-34.23 77.21,-63.41 108.01,-102.02 124.33,-155.83 229.98,-276.86 264.1,-496.35 70.56,-453.96 -248.31,-981.88 -721.2,-982.42 -262.77,-0.3 -450.3,69.56 -645.86,216.48 -19.91,14.94 -38.86,27.82 -57.97,43.42l-58.82 49.82c-36.49,35.25 -77.96,65.01 -111.78,105.48 -98.06,117.31 -201.01,230.95 -281.54,363.04l-81.33 135.93c-27.93,46.25 -51.21,91.05 -76.23,141.05 -47.61,95.18 -82.67,198.44 -137.47,289.83l-59.22 100.1c-81.77,165.16 -195.04,363.74 -296.23,514.92 -100,149.42 -194.36,305.08 -313.94,439.27 -91.08,102.21 -157.6,187.83 -264.73,278.45 -20.11,17 -39.93,32.78 -61.5,47.14 -102,67.86 -353.83,231.29 -411.4,9.97 -31.32,-120.39 -16.87,-268.82 1.03,-391.38 27.62,-189.11 63.93,-362.55 108.98,-542.82 57.86,-231.47 119.94,-453.45 192.13,-669.72 71.39,-213.85 136.78,-439.38 208.19,-653.66 34.75,-104.29 197.73,-586.35 203.7,-658.12 319.08,0 755.54,66.14 986.72,273.46l54.14 47.24c24.59,22.35 19.22,41.46 57.08,52.38 58.54,16.88 105.18,-44.03 85.07,-107.4 -22.83,-71.95 -68.88,-141.84 -112.09,-199.55l-102.13 -107.9c-193.31,-172.18 -427.3,-226.03 -685.04,-263.71 -53.46,-7.81 -139.01,-8.64 -189.59,-20.43 51.79,-222.33 83.41,-310.56 123.07,-550.47 10.38,-62.84 25.32,-130.12 34.16,-190.35 76,-517.53 -441.43,-567.06 -560.31,-516.86 -63.07,26.62 -64.06,84.37 -54.54,158.18 22.75,176.61 -5.3,258.15 -42.06,397.04 -12.72,48.09 -194.6,665.24 -195.59,709.7l-395.28 10.3c-66.98,10.18 -319.15,-5.67 -389.13,-15.31 -183.45,-25.28 -329.16,-54.18 -485.38,-130.43 -155.98,-76.13 -96.43,202.87 87.68,318.11 126.28,79.05 321.14,125.21 479.85,135.74 54.03,3.59 144.48,3.53 198.35,11.69 114.96,17.39 286.94,-4.2 402.52,-4.2 -21.51,44.83 -51.03,159.97 -66.11,209.11 -21.24,69.29 -41.88,142.37 -63.36,211.84 -44.54,144.05 -85.11,282.32 -128.66,429 -27.24,91.73 -157.15,576.2 -194.89,638 -209.29,342.68 -424.95,683.18 -675.8,997.19l-158.57 189.06c-50.89,57.79 -227.7,224.76 -284.2,208.27 -44.25,-29.63 -59.92,-83.41 -65.44,-151.84 -15.17,-188.22 45.57,-370.15 90.14,-547.7 85.28,-339.76 194.73,-678.08 300.35,-1010.51 156.23,-491.79 -64.55,-443.34 -396.38,-478.25 -24.26,-2.55 -68.75,-5.66 -98.55,-10.07 -74.88,-11.14 -120.57,-24.51 -185,-39.53 67.82,-128.19 122.98,-275.8 175.99,-410.63 41.65,-105.97 81.11,-218.23 104.66,-329.89 45.87,-217.55 47.95,-461.42 -156.47,-535.19 -70.43,-25.42 -164.07,-37.5 -255.73,-21.86 -470.65,80.36 -871.73,791.44 -587.8,1270.95 70.7,119.41 190.94,208.52 342.74,243.89 -69.87,104.34 -345.65,274.22 -453.85,328.33 -208.7,104.36 -389.27,142.44 -639.75,142.44l325.06 -1079.97c154.51,-531.22 529.67,-1775.35 529.54,-2280.5 -0.07,-293.41 -59.23,-584.78 -368.33,-689.04 -70.17,-23.67 -216.65,-50.99 -303.34,-33.33 -20.37,4.15 -44.04,11.39 -63.02,23.88l-51.01 35.91c-42.68,22.83 -60.4,52.75 -75.34,98.48 -29.61,90.71 -59.39,174.69 -90.49,264.37 -59.31,171.05 -124.2,340.65 -197.53,504.99l-160.79 360.66c-18.29,45.18 -36.8,77.2 -56.86,124.2l-234.17 468.35c-64.66,111.26 -117.95,226.56 -183.82,337.63l-259.01 443.5c-23.89,39.57 -45.15,72.39 -68.75,112.3 -85.97,145.4 -180.98,287.45 -274.61,427.9 -49.46,74.18 -94.22,137.51 -143.37,211.5 -17.57,26.47 -133.12,201.11 -149.23,205.65 -33.93,-2.83 -100.79,-27.14 -136.67,-37.14 -45.63,-12.74 -95.77,-22.15 -149.92,-31.14 -56.88,-9.46 -93.08,-13.34 -153.96,-19.85 -27.75,-2.98 -43.01,-5.58 -81.1,-5.84 -40.35,-0.25 -46.03,-7.2 -86.42,-7.71 -243.62,-3.01 -456.96,24.42 -653.96,63.61 -201.2,40.03 -377.73,100.62 -548.58,168.43 -123.65,49.06 -243.72,111 -357.19,178.73 -35.1,20.94 -74.42,57.07 -113.55,67.51z"/>
   <path class="fil0" d="M23553.54 13083.1zm86.91 -1332.6l-86.91 1332.6zm86.91 -1332.6zm-86.91 1332.6l86.91 -1332.6zm-86.91 1332.6c25.85,-38.59 895.37,-898.12 975.88,-979.57l166.61 -159.3c80.68,-80.68 698.26,-715.59 737.18,-724.28 20.15,-4.5 94.58,23.96 123.65,33.64l1002.26 308.61 -2624.15 1330.18c-65.64,32.83 -122.66,61.33 -188.29,94.15 -35.17,17.58 -61.48,30.62 -96.66,48.2 -33.61,16.8 -60.31,39.94 -96.48,48.37zm2962.13 -1615.04zm-1296.38 -123.13l1296.38 123.13zm-1296.38 -123.13l-831.06 834.68c-140.58,140.59 -275.86,275.86 -416.44,416.43 -63.54,63.54 -143.78,154.68 -212.4,207.65 -35.58,27.48 -73.58,71.09 -106.26,103.78 -29.92,29.91 -75.5,82.23 -106.83,103.2l230.18 -805.48c8.55,-30.74 15.4,-49.42 23.33,-78.06 34.64,-125.08 7.83,-90.86 154.48,-164.18l1265 -618.02zm0 0zm-2172.71 -941.51l2172.71 941.51zm-2172.71 -941.51c33.78,-7.86 334.98,-164.1 393.53,-193.1 156.87,-77.67 1130.89,-585.14 1178.06,-589.08 7.02,30.14 602.46,1190.44 688.03,1361.56 18.66,37.35 91.16,166.85 94.14,202.8l-975.39 480.33c-182.29,91.2 -425.71,197.16 -596.2,287.36 -9.74,-41.84 -73.28,-151.81 -96.46,-193.22 -35.17,-62.82 -64.03,-127.77 -96.66,-193.04l-576.16 -1133.04c-9.81,-17.02 -6.73,-16.75 -12.89,-30.57zm210.03 -173.81zm383.84 1520.89l-383.84 -1520.89zm383.84 1520.89l-204.59 -200.97c-33.69,-33.69 -70.6,-66.54 -101.34,-101.45l-706.19 -713.32c-34.71,-34.72 -68.54,-65.69 -101.48,-101.3 -136.24,-147.3 -259.83,-267.25 -401.86,-409.28 -29.73,-29.73 -78.45,-71.65 -99.59,-103.21 51.78,12.06 104.35,28.91 156.69,46.09 52.12,17.14 104.1,34.22 154.74,48.07 50.64,13.85 102.62,30.92 154.73,48.04 54.8,18 102.14,29.86 155.83,46.96 101.4,32.3 204.7,61.74 309.79,95.78 39.48,12.81 38.59,9.86 55.91,45.49l564.59 1159.08c21.57,43.13 51.78,92.82 62.77,140.02zm-1723.68 -1665.74c59.98,40.16 173.83,172.79 233.48,237.28 143.97,155.64 419.16,418.98 586.72,586.54l702.51 709.75c20.02,20.02 39.59,37.23 57.88,57.99 12.69,14.41 12.78,18.09 25.46,32.48l148.41 148.52c31.61,31.61 89.35,96.29 121.31,117.7l-322.39 1111.59c-10.68,34.64 6.82,14.51 -18,32.7 -10.51,-45.12 -156.94,-313.85 -188.3,-376.59l-673.54 -1325.37c-32.4,-64.79 -63.18,-126.26 -96.57,-193.12 -32.64,-65.41 -63.26,-119.3 -96.56,-185.9 -33.42,-66.84 -64.17,-128.32 -96.56,-193.11 -31.98,-63.97 -63.38,-119.52 -96.57,-185.9 -37.76,-75.53 -279.52,-541.27 -287.28,-574.56zm0 0zm2875.22 -282.45l-2875.22 282.45zm2875.22 -282.45c40.02,26.8 151.97,155.58 204.6,208.21l626.46 626.48c70.99,70.99 131.68,138.91 202.79,210.02 54.53,54.53 603.01,595.96 624.65,628.28l-234.57 -69.62c-225.45,-75.02 -488.22,-149.92 -719.01,-222.49 -55.63,-17.5 -47.29,-29.4 -91.73,-118.3 -195.04,-390.08 -385.46,-800.82 -579.3,-1187.83 -12.92,-25.78 -27.38,-46.8 -33.89,-74.75zm0 0zm1723.68 1665.75l-1723.68 -1665.75zm1723.68 1665.75l-646.38 -650.01c-69.07,-69.07 -381.81,-373.1 -438.9,-444.68l-527.95 -529.42c-56.09,-56.09 -106.87,-106.86 -162.96,-162.96 -103.39,-103.38 -108.51,-57.46 -17.11,-332.14 13.79,-41.43 25.87,-80.44 37.59,-121.74 26.14,-92.1 223.22,-697.87 227.57,-750.16l14.49 0c8.91,38.25 68,143.24 89.32,185.9l477.9 934.36c68.43,122.26 118.74,255.46 190.17,374.73 60.77,101.48 126.05,268.43 187.17,370.49 36.93,61.66 63.38,121.45 95.93,186.53l333.16 651.8c28.99,58.47 132.07,253.25 140,287.3zm-3259.06 -1238.45c31.01,-46.31 1148.93,-1145.3 1229.39,-1225.77l307.8 -307.8c29.91,-29.92 75.5,-82.23 106.82,-103.21 -3.12,37.56 -34.28,116.7 -46.06,156.73l-145.03 470.57c-35.43,105.65 -60.39,204.1 -95.54,310.03 -16.51,49.71 -38.55,47.27 -116.53,86.26l-963.23 478c-45.34,22.67 -247.58,128.2 -277.62,135.19zm1644.01 -1636.78zm0 -79.67l0 79.67zm0 -79.67c-21.06,31.46 -274.97,278.6 -324.09,327.73l-1470.2 1462.96c-90.77,91.37 -104.26,63.37 -225.4,26.23l-499.12 -152.7c-36.45,-10.07 -80.7,-23.76 -122,-37.32 -43.52,-14.31 -86.63,-27.21 -126.63,-39.95l-252.62 -73.29c9.38,-8.15 2.39,-3.37 16.95,-12.01 9.02,-5.35 14.42,-7.5 24.01,-12.22 18.79,-9.23 29.73,-14.73 48.36,-24.04l284.86 -142.44c128.41,-64.21 248.21,-124.1 376.61,-188.31 255.9,-127.95 501.8,-254.51 755.62,-381.43 251.07,-125.53 502.14,-251.07 753.2,-376.59 54.06,-27.03 722.19,-367.7 760.45,-376.62zm0 0zm-3085.24 1484.7l3085.24 -1484.7zm-3085.24 1484.7c5.62,24.12 11.32,30.33 23.08,49.33 10.35,16.72 15.87,28.36 25.21,47.21 18.22,36.75 32.36,64.75 50.69,101.41l1013.92 1991.65c35.25,70.47 66.17,132.32 101.4,202.78l306.59 598.71c33.52,67.08 66.43,136.71 101.39,202.78 33.99,-2.83 748.67,-370.71 799.08,-395.92l1793.7 -907.71c69.14,-34.57 129.65,-68.44 200.37,-103.8 135.01,-67.51 269.75,-131.06 400.74,-200.37 -10.79,-46.29 -845.09,-1661.21 -1009.1,-1989.25l-304.18 -593.86c-39.09,-78.19 -293.81,-569.39 -301.77,-603.54 -34.74,8.1 -237.23,115.16 -296.99,144.8l-1301.15 654.29c-93.38,46.68 -728.91,358.18 -800.48,401.76 -59.91,36.47 -131.25,67.73 -196.56,100.37l-400.74 200.37c-45.75,22.87 -164.86,89.58 -205.2,98.99z"/>
   <path class="fil0" d="M20576.94 9968.88c104.08,0 247.24,-61.58 321.18,-98.86 201.33,-101.5 176.52,-352.68 140.92,-384.97 -16.68,-15.11 -57.3,-30.23 -82.54,-40.58 -99.29,-40.76 -100.47,-145.64 -174.71,-303.28 -61.81,-131.27 -272.48,-134.78 -393.67,66.74 -59.57,99.07 -64,171.28 -78.55,298.05 -15.54,135.42 -23.33,175.2 45.12,301.3 41.9,77.22 126.41,161.6 222.25,161.6z"/>
  </g>
 </g>
</svg>
