<?xml version="1.0" encoding="UTF-8"?>
<!DOCTYPE svg PUBLIC "-//W3C//DTD SVG 1.1//EN" "http://www.w3.org/Graphics/SVG/1.1/DTD/svg11.dtd">
<!-- Creator: CorelDRAW -->
<svg xmlns="http://www.w3.org/2000/svg" xml:space="preserve" width="297mm" height="210mm" version="1.1" style="shape-rendering:geometricPrecision; text-rendering:geometricPrecision; image-rendering:optimizeQuality; fill-rule:evenodd; clip-rule:evenodd"
viewBox="0 0 29700 21000"
 xmlns:xlink="http://www.w3.org/1999/xlink"
 xmlns:xodm="http://www.corel.com/coreldraw/odm/2003">
 <defs>
  <style type="text/css">
   <![CDATA[
    .fil0 {fill:#66FFCC}
   ]]>
  </style>
 </defs>
 <g id="Capa_x0020_1">
  <metadata id="CorelCorpID_0Corel-Layer"/>
  <g id="_1936032614800">
   <path class="fil0" d="M13257.67 19004.66zm308.86 -4797.94l-308.86 4797.94zm308.86 -4797.94zm-308.86 4797.94l308.86 -4797.94zm-308.86 4797.94c91.87,-138.93 3182.01,-3233.61 3468.13,-3526.87l592.09 -573.55c286.73,-290.49 2481.51,-2576.45 2619.83,-2607.74 71.62,-16.2 336.13,86.27 439.42,121.13l3561.91 1111.13 -9325.83 4789.23c-233.29,118.2 -435.93,220.82 -669.16,338.99 -125,63.29 -218.51,110.23 -343.51,173.52 -119.47,60.49 -214.35,143.83 -342.88,174.16zm10526.95 -5814.86zm-4607.13 -443.31l4607.13 443.31zm-4607.13 -443.31l-2953.46 3005.22c-499.62,506.16 -980.36,993.2 -1479.97,1499.34 -225.81,228.77 -510.99,556.89 -754.85,747.62 -126.43,98.93 -261.47,255.97 -377.63,373.65 -106.33,107.7 -268.3,296.06 -379.65,371.57l818.02 -2900.1c30.39,-110.65 54.74,-177.92 82.92,-281.03 123.09,-450.36 27.82,-327.14 548.99,-591.14l4495.63 -2225.13zm0 0zm-7721.5 -3389.85l7721.5 3389.85zm-7721.5 -3389.85c120.04,-28.34 1190.47,-590.86 1398.56,-695.27 557.49,-279.64 4019.02,-2106.77 4186.64,-2120.94 24.96,108.5 2141.07,4286.11 2445.16,4902.22 66.33,134.47 323.96,600.72 334.57,730.17l-3466.39 1729.4c-647.84,328.37 -1512.92,709.86 -2118.81,1034.63 -34.63,-150.63 -260.44,-546.57 -342.82,-695.7 -124.97,-226.18 -227.54,-460 -343.51,-695.02l-2047.59 -4079.45c-34.84,-61.26 -23.9,-60.3 -45.81,-110.04zm746.43 -625.82zm1364.11 5475.9l-1364.11 -5475.9zm1364.11 5475.9l-727.09 -723.6c-119.72,-121.28 -250.89,-239.58 -360.15,-365.27l-2509.69 -2568.25c-123.36,-125.01 -243.59,-236.53 -360.66,-364.74 -484.17,-530.34 -923.38,-962.22 -1428.13,-1473.6 -105.67,-107.02 -278.8,-257.96 -353.94,-371.57 184.03,43.42 370.87,104.06 556.85,165.94 185.23,61.68 369.96,123.19 549.93,173.05 179.96,49.86 364.7,111.34 549.9,172.99 194.74,64.8 363,107.49 553.78,169.05 360.36,116.3 727.49,222.3 1100.95,344.88 140.33,46.11 137.16,35.48 198.69,163.79l2006.49 4173.2c76.64,155.28 184.01,334.19 223.07,504.13zm-6125.71 -5997.4c213.16,144.59 617.78,622.12 829.76,854.31 511.65,560.37 1489.63,1508.52 2085.13,2111.79l2496.59 2555.41c71.16,72.1 140.72,134.06 205.71,208.81 45.08,51.86 45.42,65.11 90.47,116.94l527.43 534.75c112.33,113.8 317.55,346.66 431.13,423.75l-1145.73 4002.24c-37.97,124.7 24.23,52.23 -63.96,117.71 -37.36,-162.43 -557.74,-1129.98 -669.22,-1355.89l-2393.65 -4771.91c-115.12,-233.3 -224.53,-454.58 -343.18,-695.33 -116.01,-235.51 -224.84,-429.54 -343.18,-669.3 -118.77,-240.66 -228.03,-462.04 -343.15,-695.3 -113.66,-230.31 -225.23,-430.31 -343.18,-669.31 -134.21,-271.94 -993.4,-1948.84 -1020.97,-2068.67zm0 0zm10218.09 -1016.96l-10218.09 1016.96zm10218.09 -1016.96c142.24,96.5 540.08,560.16 727.13,749.66l2226.33 2255.59c252.29,255.59 467.97,500.13 720.72,756.16 193.76,196.33 2142.98,2145.73 2219.89,2262.08l-833.62 -250.63c-801.21,-270.13 -1735.05,-539.8 -2555.26,-801.09 -197.68,-62.98 -168.04,-105.85 -326,-425.91 -693.14,-1404.48 -1369.86,-2883.31 -2058.75,-4276.74 -45.9,-92.83 -97.3,-168.5 -120.44,-269.12zm0 0zm6125.71 5997.44l-6125.71 -5997.44zm6125.71 5997.44l-2297.14 -2340.32c-245.47,-248.69 -1356.88,-1343.35 -1559.76,-1601.04l-1876.26 -1906.15c-199.36,-201.94 -379.81,-384.76 -579.14,-586.73 -367.44,-372.23 -385.65,-206.87 -60.8,-1195.86 49,-149.16 91.93,-289.63 133.58,-438.32 92.9,-331.6 793.27,-2512.63 808.74,-2700.9l51.5 0c31.68,137.7 241.65,515.71 317.43,669.3l1698.39 3364.11c243.2,440.2 421.98,919.78 675.84,1349.2 215.96,365.39 447.94,966.48 665.17,1333.93 131.24,222.02 225.23,437.27 340.9,671.61l1184 2346.75c103.03,210.54 469.37,911.81 497.55,1034.42zm-11582.2 -4458.98c110.19,-166.74 4083.13,-4123.58 4369.07,-4413.3l1093.87 -1108.24c106.3,-107.7 268.3,-296.06 379.63,-371.58 -11.1,135.2 -121.85,420.15 -163.71,564.28l-515.42 1694.27c-125.88,380.38 -214.59,734.84 -339.53,1116.24 -58.67,179 -136.98,170.19 -414.13,310.57l-3423.17 1721.03c-161.12,81.61 -879.85,461.57 -986.61,486.73zm5842.57 -5893.12zm0 -286.85l0 286.85zm0 -286.85c-74.85,113.27 -977.23,1003.06 -1151.78,1179.96l-5224.85 5267.31c-322.6,328.98 -370.54,228.18 -801.06,94.46l-1773.78 -549.81c-129.56,-36.25 -286.82,-85.53 -433.59,-134.37 -154.67,-51.5 -307.85,-97.97 -450,-143.83l-897.79 -263.88c33.35,-29.35 8.48,-12.13 60.25,-43.24 32.04,-19.25 51.23,-27.01 85.3,-43.98 66.79,-33.23 105.67,-53.06 171.88,-86.57l1012.34 -512.85c456.35,-231.17 882.1,-446.82 1338.42,-677.99 909.44,-460.68 1783.33,-916.37 2685.37,-1373.32 892.26,-451.96 1784.52,-903.95 2676.74,-1355.91 192.13,-97.33 2566.57,-1323.86 2702.55,-1355.98zm0 0zm-10964.49 5345.56l10964.49 -5345.56zm-10964.49 5345.56c19.97,86.85 40.22,109.21 82.01,177.64 36.79,60.18 56.43,102.1 89.59,169.98 64.75,132.31 115.03,233.11 180.15,365.11l3603.34 7170.81c125.25,253.74 235.14,476.41 360.36,730.13l1089.58 2155.59c119.1,241.52 236.08,492.24 360.32,730.13 120.78,-10.2 2660.66,-1334.73 2839.8,-1425.49l6374.53 -3268.17c245.72,-124.46 460.77,-246.42 712.11,-373.74 479.79,-243.05 958.65,-471.88 1424.15,-721.41 -38.33,-166.68 -3003.31,-5981.11 -3586.19,-7162.19l-1081.01 -2138.15c-138.93,-281.53 -1044.16,-2050.08 -1072.43,-2173.02 -123.49,29.16 -843.1,414.63 -1055.47,521.35l-4624.1 2355.71c-331.84,168.07 -2590.43,1289.61 -2844.78,1446.52 -212.89,131.33 -466.42,243.86 -698.55,361.39l-1424.16 721.41c-162.58,82.36 -585.89,322.55 -729.25,356.4z"/>
   <path class="fil0" d="M13536.66 10975.62l5.31 -21.51 -5.31 21.51zm8923.76 -830.34l-5.33 21.5 5.33 -21.5zm-18148.23 -390.16zm12929.77 1080.45l-12929.77 -1080.45zm12929.77 1080.45c30.44,-134.79 111.57,-285.63 174.71,-410.05 22.49,-44.3 40.92,-85.94 64.41,-133.66 99.1,-201.37 324.85,-558.94 449.45,-726.93 27.57,-37.15 56.36,-73.78 86.03,-111.35l134.56 -161.34c90.37,-96.88 290.66,-277.41 410.01,-277.41l48.49 0c193.39,0 344.71,449.33 201.05,817.61 -105.74,271.05 -299.96,429.89 -512.81,591.54 -222.75,169.21 -622.16,339.35 -896.53,385.89 -33.65,5.7 -142.05,17.12 -159.37,25.7zm-13676.65 -370.16c0,143.81 137.18,190.79 290.09,129.12 40.06,-16.16 215.87,-195.52 269.61,-242.12 16.74,-14.5 23.42,-24.85 39.36,-39.46 449.41,-412.21 1052.96,-759.01 1670.09,-848.54 39.3,-5.72 86.23,-8.52 130.76,-15.23 106.75,-16.12 311.6,-5.72 423.09,-4.57 132.7,1.34 374.29,50.57 504.93,79.47 50.98,11.27 195.1,42.85 222.19,80.98 -8.6,33.17 -157.54,219.62 -181.52,252.96l-690.03 858.98c-17.64,22.81 -33.51,34.2 -52.29,56.12l-101.49 115.42c-21.18,26.14 -24.02,34.31 -48.79,59.71 -20.08,20.65 -34.08,33.68 -53.67,54.69 -24.27,25.98 -28.72,39.44 -52.97,65.42 -143.91,154.22 -289.68,298.33 -436.68,449.99 -19.59,20.2 -33.22,36.06 -53.21,55.14 -417.73,398.51 -939.53,847.94 -1439.61,1096.31 -387.5,192.46 -863.88,253.08 -1261.16,33.26 -138.72,-76.76 -277.95,-221.97 -367.68,-351.09 -201.9,-290.49 -343.6,-711.66 -343.6,-1096.23 0,-440.98 21.03,-599.52 161.15,-1014.29 39.04,-115.51 90.21,-234.49 139.56,-336.27 113.64,-234.32 283.21,-542.87 458.2,-737.93 259.13,-288.87 644.76,-636.32 1037.53,-364.57 135.29,93.61 261,252.33 279.56,431.98 35.93,347.79 -156.82,768.76 -381.04,1028.09 -25.2,29.18 -162.38,179.97 -162.38,202.66zm7953.8 -1610.65c-156.77,-13.47 -164.9,-145.21 -164.9,-250.12 0,-233.67 328.86,-813.61 523.79,-830.34 0,243.16 -59.6,361.66 -137.24,578.74 -46.15,129.01 -216.58,479.24 -221.65,501.72zm-2842.03 870.35c-141.44,-33.99 -347.62,-111.25 -493.45,-161.34l-476.53 -178.81 765.84 -1220.96 484.99 -850.36c40.86,-72.97 76.39,-146.22 117.28,-219.17l529.18 -1054.87c13.89,-30.94 10.67,-37.23 42.67,-46.05 15.77,33.9 -1.56,64.33 -11.72,107.96l-201.66 832.45c-132.05,549.78 -345.94,1324.22 -498.09,1867.28 -25.17,89.81 -230.74,864.18 -258.51,923.87zm-4364.89 30.01c9.62,-42.63 24.49,-76.18 37.45,-111.45 237.2,-646.54 -59.74,-1307.05 -727.88,-1477.4 -334.84,-85.37 -740.36,-31.79 -1054.28,99.51 -225.78,94.43 -425.78,243.69 -604.97,406.47 -206.91,187.92 -366.64,425.88 -506.18,668.45 -40.66,70.68 -69.48,136.48 -105.79,210.99 -34.59,70.92 -61.15,140.3 -89.68,217.65 -170.29,461.78 -219.97,870.62 -188.06,1376.01 11.47,181.67 68.01,376.18 114.77,521.9 84.51,263.4 222.98,503.35 390.67,717.56 26.27,33.58 47.53,52.86 72.13,85.65l108.44 118.26c19.41,17.63 24.19,17.5 43.48,35.18 170.25,156.03 359.48,277.79 569.68,372.83 499.65,225.97 1030.44,238.38 1551.11,58.61 283.81,-98.01 569.8,-261.55 811.81,-443.25 208.6,-156.62 411.42,-312.1 608.46,-482.89 30.29,-26.25 56.3,-50.98 84.32,-73.12 191.69,-151.49 678.39,-654.45 822.12,-822.78l329.87 -370.07c19.35,-19.95 18.61,-21.05 35.48,-43.44 100.08,-132.88 276.3,-331.93 390.54,-477.57 78.1,-99.57 452.78,-575.85 468.63,-637.12 83.82,20.14 185.87,62.27 270.36,91.29 124.89,42.94 737.3,256.15 854.81,258.85 -9.93,123.05 -65,312.31 -86.03,441.49 -25.76,158.25 -47.27,305.03 -69.71,468.33 -87.79,638.67 -111.3,1399.96 -31.48,2024.42 82.78,647.43 237.29,1278.11 626.76,1774.57l91.62 105.59c544.9,612.12 1412.02,690.59 2234.48,419.03 162,-53.51 236.29,-46.36 309.38,-221.41 34.12,-81.73 3.75,-126.88 -61.17,-167.15 -122.63,-76.06 -137.79,-8.72 -387.14,55.21 -266.92,68.4 -633.6,95.95 -893.8,-24.59 -90.05,-41.73 -171.96,-81.96 -241.59,-151 -27.96,-27.71 -48.35,-37.49 -73.04,-64.73 -178.35,-196.77 -295.93,-426.26 -388.76,-679.51 -49.72,-135.71 -80.19,-279.66 -107.24,-419.6l-50.19 -348.4c-3.36,-35.79 -6.06,-84.98 -11.53,-128.17 -7.74,-61.26 -17.21,-182.05 -16.8,-252.77 0.56,-101.24 -10.11,-167.82 -9.64,-260.18 0.61,-121.75 -1.83,-420.34 12.41,-527.55 21.72,-163.42 20.85,-331.9 37.68,-501.35 42.7,-429.92 106.23,-858.76 198.31,-1276.09 9.37,-42.38 22.3,-72.24 23.25,-116.08l180.27 -14.14c62.62,-9.33 128.9,-13.87 181.54,-22.86 414.36,-70.8 787.14,-243.2 1105.89,-510.08 109.21,-91.41 212,-185.54 309.98,-290.56 88.65,-95.05 31.85,-96.85 303.62,-58.44 66.99,9.46 116.61,15.72 188.44,15.72 -3.07,38.15 -15.83,52.79 -29.17,79.95 -37.54,76.42 -66.63,171.42 -96.93,250.18 -125.09,325.24 -240.03,727.07 -320.1,1060.42 -81.81,340.64 -172.19,859.03 -85.48,1238.68 28.78,126.01 65.96,241.02 132.43,333.61 67.04,93.38 137.14,154.35 270.22,181.49 241.06,49.18 502.29,-69.8 679.18,-205.94 172.69,-132.89 307.8,-302.77 445.97,-470.42 122.22,-148.25 544.07,-801.07 565.55,-817.29 -1.06,48.89 -19.49,107.38 -28.31,150.9l-56.13 322.24c-61.71,484.72 -11.17,1002.3 464.01,1176.22 173.45,63.48 437.81,94.8 637.09,39.48 255.47,-70.92 474.04,-270.15 654.11,-455.83l258.14 -304.01 309.78 -440.79c62.5,-96.69 140.87,-248.32 202.04,-331.86 17.42,-23.82 0.61,-1.23 13.32,-16.28 0,356.67 -46.72,374.87 11.29,798.67 59.86,437.29 278.24,852.01 695.43,983.45 494.04,155.65 1031.01,-22.43 1424.56,-324.26l218.45 -194.86c20.41,-21.18 35.19,-34.14 54.81,-53.52 229.87,-226.94 410.94,-503.15 586.87,-775.3 30.18,-46.71 143.51,-233.57 170.7,-254.11 -112.92,499.85 -297.29,1522.88 389.7,1698.95 169.53,43.43 316.35,51.46 267.96,-156.33 -121.75,-522.86 118.33,-1184.59 291.42,-1664.24l1122.52 -1603.36c18.51,-24.44 19.29,-26.85 40.46,-48.32l160.1 -175.02c105.47,-108.77 218.22,-239.26 360.24,-298.7 291.61,-122.13 136.88,223.53 84.92,357.67 -245.93,634.62 -565.78,1240.9 -776.25,1890.51 -27.41,84.62 -52.63,163.02 -79.96,247.67 -27.23,84.27 -50.43,173.73 -75.32,262.46 -23.1,82.4 -41.27,179.96 -55.15,273.25 -21.59,145.15 -26.81,323.6 -7.15,459.12 8.32,57.33 12.12,91.41 26.38,142.87 25.34,91.56 58.16,163.39 105.34,231.49 86.45,124.79 234.3,220.54 405.93,251.62 384.41,69.6 269.64,-86.3 221.76,-278.74 -107.96,-433.97 97.56,-960.99 251.01,-1362.26 21.16,-55.32 24.25,-66.89 58.22,-110.01 168.19,-213.59 332.03,-454.36 480.49,-684.93l199.96 -293.98c22.52,-32.93 44.97,-66.82 67.85,-100.08 152.33,-221.4 520.38,-728.12 740,-917.47 90.75,-78.24 178.67,-166.21 295.03,-205.93 71.61,-24.47 72.95,-12.76 138.61,-7.13 42.5,188.17 -155.98,541.78 -231.46,731.7l-214.9 498.65c-117.1,268.93 -233.24,531.84 -330.75,809.35 -102.12,290.65 -198.56,564.37 -266.39,875.72 -62.3,286.01 -69.93,694.78 129.31,928.68 95.73,112.39 238.73,161.69 384.67,183.49 321.35,47.97 511.78,-104.25 731.86,-287.42 18.9,-15.74 23.09,-16.36 42.78,-35.91 141.98,-140.96 275.03,-290.81 395.17,-452.79 161.42,-217.62 322.76,-440.06 461.39,-674.6 35.57,-60.19 66.2,-122.95 110.79,-175.86 -8.11,100.42 -48.7,283.26 -63.81,394.39 -43.7,321.37 -51.8,721.14 89.52,1009.68 28.59,58.4 56.23,90.38 90.55,136.71 145.06,195.78 447.82,240.52 661.09,161.34 195.03,-72.42 372.75,-253.83 515.18,-399.02 138.68,-141.38 292.8,-345.47 406.33,-501.32 224.67,-308.46 435.49,-639.7 628.55,-972.4l173.71 -281.01c62.23,-85.95 137.71,-171.17 238.07,-214.66 32.82,-14.22 49.45,-21.57 87.35,-29.95 36.95,-8.15 65.96,-10.64 93.08,-24.06 -1.19,-54.81 -88.5,-205.11 -116.27,-260.23 -18.36,-36.45 -38.16,-94.55 -82.75,-104.5 -100.16,-22.33 -260.01,192.82 -309.63,260.29 -101.09,137.46 -343.76,551.8 -438.83,717.89 -138.18,241.37 -300.64,469.75 -455.09,701.12l-120.39 165.94c-110.14,148.45 -524.39,711.39 -669.01,420.11 -193.76,-390.34 317.44,-1937.96 410.87,-2226.97 72.5,-224.26 255.02,-675.39 276.34,-885.49 26.88,-264.56 -115.08,-361.94 -295.3,-473.07 -84.53,-52.15 -328.44,-172.2 -384.14,12.42 -39.43,130.75 14.42,121.56 -117.46,469.06 -108.33,285.44 -214.6,561.28 -311.31,849.44 -19.67,58.65 -26.38,84.81 -56.28,132.03 -27.16,42.88 -47.99,79.47 -73.96,123.81 -213.84,365.36 -435.7,713.42 -663.34,1066.57 -26.95,41.81 -49.12,79 -78.38,119.23 -137.9,189.63 -542.27,786.4 -735,803.74 -213.24,19.18 -128.46,-458.19 -100.28,-584.76 101.41,-455.13 335,-990.17 517.66,-1416.93 192.36,-449.44 570.19,-1392.25 368.99,-1840.65 -37.74,-84.08 -105.05,-154.5 -187.4,-196.89 -82.48,-42.46 -216.48,-74.06 -312.85,-59.11 -63.53,9.85 -109.57,10.76 -161.66,23.8 -51.96,13.03 -100.11,32.45 -143.21,52.39 -203.95,94.32 -383.39,251.43 -540.89,412.53 -37.18,38.03 -55.88,68.47 -92.06,105.15 -179.41,181.89 -348.77,445.36 -500.63,654.13 -30.5,41.94 -136.94,198.37 -166.3,218.65l192.87 -561.4c56.73,-199.24 99.1,-417.61 58.23,-657.96 -34.26,-201.46 -162.16,-353.26 -347.77,-401.66 -374.85,-97.75 -671.47,115.6 -919.46,342.89l-273.95 287.7c-26,34.8 -54.92,67.31 -84.28,103.14 -141.13,172.23 -266.36,359.27 -397.93,540 -55.09,75.68 -102.5,143.03 -156.45,218.78 -55.11,77.39 -106.92,147.96 -166.4,218.55 6.3,-77.99 53.33,-190.09 76.37,-261.38 29.38,-90.97 55.09,-168.77 82.26,-265.29 337.81,-1199.89 -538.04,-1235.41 -699.11,-1151.23 -133.36,69.7 -20.78,266.08 -71.85,576.16 -44.43,269.74 -208.3,805.2 -295.78,1075.49 -36.1,111.52 -47.54,140.13 -106.17,240.67 -146.81,251.8 -285.3,509.6 -442.61,754 -24.17,37.55 -44.16,63.19 -68,99.91 -162.24,249.98 -261.95,375.57 -428.85,598.14l-163.21 181.81c-160.53,167.06 -393.85,355.44 -623.75,397.1 -105.82,19.16 -195.56,17.9 -284.52,-15.61 -76.36,-28.79 -149.44,-83.57 -193.37,-150.68 -46.96,-71.7 -75.68,-139.6 -93.37,-243.84 -13.84,-81.51 -24.41,-237.75 -10.96,-330.41 7.46,-51.45 8.42,-108.54 14.68,-154.92 7.41,-54.82 15.35,-96.79 25.62,-153.66 9.52,-52.72 16.42,-89.28 27.56,-141.63 10.18,-47.82 31.46,-103.57 34.74,-144.25 110.55,0 376.05,-77.28 466.89,-108.71 347.94,-120.38 767.33,-308.9 1029.15,-579.23 45.79,-47.28 103.41,-87.59 144.66,-140.93 166.52,-215.25 308.02,-382.43 353.71,-685.63 94.5,-627.07 -332.56,-1356.3 -965.9,-1357.04 -351.93,-0.42 -603.1,96.08 -865.02,299.02 -26.66,20.65 -52.03,38.43 -77.64,59.98l-78.77 68.82c-48.87,48.69 -104.41,89.81 -149.7,145.71 -131.34,162.04 -269.23,319.02 -377.08,501.48l-108.92 187.77c-37.41,63.87 -68.58,125.77 -102.09,194.83 -63.77,131.48 -110.73,274.12 -184.12,400.36l-79.31 138.27c-109.52,228.14 -261.23,502.45 -396.75,711.28 -133.93,206.39 -260.31,421.42 -420.46,606.77 -121.98,141.19 -211.08,259.47 -354.56,384.63 -26.93,23.49 -53.48,45.29 -82.36,65.12 -136.61,93.74 -473.89,319.49 -550.99,13.78 -41.95,-166.3 -22.6,-371.33 1.38,-540.63 36.98,-261.22 85.62,-500.8 145.96,-749.82 77.49,-319.74 160.63,-626.37 257.32,-925.11 95.61,-295.4 183.19,-606.93 278.82,-902.92 46.55,-144.06 264.83,-809.96 272.83,-909.1 427.34,0 1011.89,91.37 1321.51,377.75l72.51 65.26c32.94,30.87 25.74,57.27 76.45,72.35 78.4,23.31 140.87,-60.82 113.93,-148.37 -30.58,-99.38 -92.25,-195.91 -150.11,-275.64l-136.79 -149.04c-258.9,-237.85 -572.28,-312.23 -917.47,-364.28 -71.61,-10.78 -186.18,-11.93 -253.92,-28.21 69.35,-307.12 111.71,-428.99 164.82,-760.39 13.9,-86.8 33.91,-179.75 45.75,-262.94 101.79,-714.89 -591.21,-783.3 -750.43,-713.96 -84.47,36.78 -85.79,116.55 -73.05,218.5 30.48,243.96 -7.09,356.6 -56.33,548.45 -17.03,66.43 -260.62,918.93 -261.95,980.33l-529.4 14.23c-89.7,14.06 -427.44,-7.83 -521.16,-21.15 -245.71,-34.92 -440.85,-74.83 -650.08,-180.16 -208.9,-105.16 -129.15,280.23 117.44,439.41 169.12,109.19 430.09,172.96 642.66,187.51 72.37,4.95 193.51,4.87 265.65,16.14 153.97,24.03 384.3,-5.79 539.1,-5.79 -28.81,61.92 -68.35,220.97 -88.55,288.85 -28.44,95.71 -56.09,196.65 -84.86,292.62 -59.65,198.98 -113.97,389.98 -172.31,592.6 -36.48,126.71 -210.47,795.92 -261.01,881.29 -280.3,473.35 -569.14,943.7 -905.11,1377.45l-212.37 261.15c-68.15,79.83 -304.96,310.48 -380.64,287.7 -59.26,-40.92 -80.24,-115.22 -87.64,-209.75 -20.31,-259.98 61.04,-511.29 120.73,-756.55 114.22,-469.32 260.8,-936.66 402.25,-1395.86 209.24,-679.33 -86.44,-612.4 -530.86,-660.63 -32.49,-3.52 -92.09,-7.81 -131.99,-13.9 -100.29,-15.39 -161.49,-33.86 -247.78,-54.6 90.84,-177.08 164.71,-380.99 235.71,-567.23 55.78,-146.37 108.64,-301.45 140.18,-455.68 61.42,-300.51 64.21,-637.38 -209.56,-739.29 -94.34,-35.11 -219.75,-51.8 -342.52,-30.18 -630.34,110.99 -1167.5,1093.24 -787.23,1755.6 94.68,164.95 255.73,288.04 459.03,336.9 -93.57,144.13 -462.93,378.79 -607.85,453.53 -279.51,144.15 -521.35,196.76 -856.81,196.76l435.35 -1491.81c206.94,-733.79 709.39,-2452.36 709.21,-3150.13 -0.09,-405.3 -79.33,-807.79 -493.3,-951.81 -93.98,-32.7 -290.17,-70.44 -406.27,-46.04 -27.28,5.73 -58.99,15.74 -84.4,32.99l-68.32 49.61c-57.16,31.53 -80.9,72.87 -100.9,136.03 -39.66,125.3 -79.54,241.31 -121.2,365.19 -79.43,236.27 -166.34,470.54 -264.55,697.56l-215.34 498.2c-24.51,62.4 -49.3,106.63 -76.16,171.55l-313.62 646.95c-86.6,153.69 -157.97,312.96 -246.2,466.38l-346.89 612.62c-32,54.66 -60.48,100 -92.07,155.13 -115.15,200.85 -242.4,397.07 -367.8,591.07 -66.24,102.47 -126.19,189.95 -192.01,292.16 -23.53,36.56 -178.29,277.81 -199.87,284.07 -45.44,-3.9 -134.99,-37.48 -183.05,-51.31 -61.1,-17.59 -128.25,-30.59 -200.78,-43.01 -76.17,-13.07 -124.66,-18.42 -206.2,-27.42 -37.17,-4.11 -57.61,-7.71 -108.62,-8.06 -54.04,-0.34 -61.65,-9.95 -115.73,-10.66 -326.29,-4.16 -612.01,33.74 -875.87,87.88 -269.46,55.28 -505.89,138.99 -734.71,232.65 -165.61,67.77 -326.41,153.34 -478.39,246.88 -47.01,28.93 -99.67,78.84 -152.07,93.27z"/>
   <path class="fil0" d="M26485.65 8893.72c139.1,0 330.41,-81.15 429.22,-130.29 269.04,-133.77 235.89,-464.79 188.31,-507.33 -22.29,-19.92 -76.56,-39.84 -110.3,-53.49 -132.69,-53.71 -134.26,-191.93 -233.48,-399.69 -82.58,-172.99 -364.12,-177.62 -526.08,87.96 -79.6,130.57 -85.51,225.72 -104.96,392.79 -20.77,178.46 -31.18,230.9 60.29,397.08 56,101.77 168.93,212.97 297,212.97z"/>
  </g>
 </g>
</svg>
